<mxfile host="app.diagrams.net" modified="2021-11-06T05:17:23.277Z" agent="5.0 (Windows NT 10.0; Win64; x64) AppleWebKit/537.36 (KHTML, like Gecko) Chrome/95.0.4638.69 Safari/537.36" etag="hzfEbelLtyTdSMAcv1W3" version="15.7.0" type="github">
  <diagram id="p6Qd_EzB1YArwJk_QUq4" name="Page-1">
    <mxGraphModel dx="1122" dy="794" grid="1" gridSize="10" guides="1" tooltips="1" connect="1" arrows="1" fold="1" page="1" pageScale="1" pageWidth="827" pageHeight="1169" math="0" shadow="0">
      <root>
        <mxCell id="0" />
        <mxCell id="1" parent="0" />
        <mxCell id="XtOwEMIuDdxN2I8YzNI1-2" style="edgeStyle=orthogonalEdgeStyle;rounded=0;orthogonalLoop=1;jettySize=auto;html=1;exitX=0.5;exitY=1;exitDx=0;exitDy=0;entryX=0.5;entryY=0;entryDx=0;entryDy=0;" edge="1" parent="1">
          <mxGeometry relative="1" as="geometry">
            <mxPoint x="320" y="230" as="targetPoint" />
            <mxPoint x="320" y="180" as="sourcePoint" />
          </mxGeometry>
        </mxCell>
        <mxCell id="XtOwEMIuDdxN2I8YzNI1-5" value="记录不存在" style="edgeStyle=orthogonalEdgeStyle;rounded=0;orthogonalLoop=1;jettySize=auto;html=1;exitX=0.5;exitY=1;exitDx=0;exitDy=0;entryX=0.5;entryY=0;entryDx=0;entryDy=0;" edge="1" parent="1" target="XtOwEMIuDdxN2I8YzNI1-9">
          <mxGeometry relative="1" as="geometry">
            <mxPoint x="320" y="310" as="sourcePoint" />
          </mxGeometry>
        </mxCell>
        <mxCell id="XtOwEMIuDdxN2I8YzNI1-7" value="记录存在" style="edgeStyle=orthogonalEdgeStyle;rounded=0;orthogonalLoop=1;jettySize=auto;html=1;exitX=1;exitY=0.5;exitDx=0;exitDy=0;entryX=0;entryY=0.5;entryDx=0;entryDy=0;exitPerimeter=0;" edge="1" parent="1" source="XtOwEMIuDdxN2I8YzNI1-13" target="XtOwEMIuDdxN2I8YzNI1-10">
          <mxGeometry relative="1" as="geometry">
            <mxPoint x="390" y="270" as="sourcePoint" />
            <mxPoint x="490" y="270" as="targetPoint" />
          </mxGeometry>
        </mxCell>
        <mxCell id="XtOwEMIuDdxN2I8YzNI1-12" style="edgeStyle=orthogonalEdgeStyle;rounded=0;orthogonalLoop=1;jettySize=auto;html=1;exitX=0.5;exitY=1;exitDx=0;exitDy=0;entryX=0.5;entryY=0;entryDx=0;entryDy=0;" edge="1" parent="1" source="XtOwEMIuDdxN2I8YzNI1-9" target="XtOwEMIuDdxN2I8YzNI1-11">
          <mxGeometry relative="1" as="geometry" />
        </mxCell>
        <mxCell id="XtOwEMIuDdxN2I8YzNI1-9" value="&lt;span style=&quot;font-family: &amp;#34;microsoft yahei ui&amp;#34; , sans-serif ; font-size: 13.3333px&quot;&gt;采集小于换日时间点的所有数据&lt;/span&gt;" style="rounded=1;whiteSpace=wrap;html=1;absoluteArcSize=1;arcSize=14;strokeWidth=2;" vertex="1" parent="1">
          <mxGeometry x="250" y="380" width="140" height="100" as="geometry" />
        </mxCell>
        <mxCell id="XtOwEMIuDdxN2I8YzNI1-18" style="edgeStyle=orthogonalEdgeStyle;rounded=0;orthogonalLoop=1;jettySize=auto;html=1;exitX=0.5;exitY=1;exitDx=0;exitDy=0;entryX=0.5;entryY=0;entryDx=0;entryDy=0;" edge="1" parent="1" source="XtOwEMIuDdxN2I8YzNI1-10" target="XtOwEMIuDdxN2I8YzNI1-17">
          <mxGeometry relative="1" as="geometry" />
        </mxCell>
        <mxCell id="XtOwEMIuDdxN2I8YzNI1-10" value="&lt;span style=&quot;font-size: 10.0pt ; line-height: 150% ; font-family: &amp;#34;microsoft yahei ui&amp;#34; , sans-serif&quot;&gt;采集上日的换日时间点到当日的换日时间点之间的数据&lt;/span&gt;" style="rounded=1;whiteSpace=wrap;html=1;absoluteArcSize=1;arcSize=14;strokeWidth=2;" vertex="1" parent="1">
          <mxGeometry x="510" y="230" width="140" height="100" as="geometry" />
        </mxCell>
        <mxCell id="XtOwEMIuDdxN2I8YzNI1-16" style="edgeStyle=orthogonalEdgeStyle;rounded=0;orthogonalLoop=1;jettySize=auto;html=1;exitX=0.5;exitY=1;exitDx=0;exitDy=0;entryX=0.5;entryY=0;entryDx=0;entryDy=0;entryPerimeter=0;" edge="1" parent="1" source="XtOwEMIuDdxN2I8YzNI1-11" target="XtOwEMIuDdxN2I8YzNI1-15">
          <mxGeometry relative="1" as="geometry" />
        </mxCell>
        <mxCell id="XtOwEMIuDdxN2I8YzNI1-11" value="&lt;span style=&quot;font-size: 10.0pt ; line-height: 150% ; font-family: &amp;#34;microsoft yahei ui&amp;#34; , sans-serif&quot;&gt;插入换日时间点到文件登记簿&lt;/span&gt;" style="rounded=1;whiteSpace=wrap;html=1;absoluteArcSize=1;arcSize=14;strokeWidth=2;" vertex="1" parent="1">
          <mxGeometry x="250" y="530" width="140" height="100" as="geometry" />
        </mxCell>
        <mxCell id="XtOwEMIuDdxN2I8YzNI1-13" value="&lt;span&gt;读取文件登记簿记录&lt;/span&gt;" style="strokeWidth=2;html=1;shape=mxgraph.flowchart.decision;whiteSpace=wrap;" vertex="1" parent="1">
          <mxGeometry x="250" y="230" width="140" height="100" as="geometry" />
        </mxCell>
        <mxCell id="XtOwEMIuDdxN2I8YzNI1-14" value="&lt;span&gt;开始&lt;/span&gt;" style="strokeWidth=2;html=1;shape=mxgraph.flowchart.start_1;whiteSpace=wrap;" vertex="1" parent="1">
          <mxGeometry x="270" y="120" width="100" height="60" as="geometry" />
        </mxCell>
        <mxCell id="XtOwEMIuDdxN2I8YzNI1-15" value="结束" style="strokeWidth=2;html=1;shape=mxgraph.flowchart.terminator;whiteSpace=wrap;" vertex="1" parent="1">
          <mxGeometry x="270" y="700" width="100" height="60" as="geometry" />
        </mxCell>
        <mxCell id="XtOwEMIuDdxN2I8YzNI1-19" style="edgeStyle=orthogonalEdgeStyle;rounded=0;orthogonalLoop=1;jettySize=auto;html=1;exitX=0.5;exitY=1;exitDx=0;exitDy=0;entryX=1;entryY=0.5;entryDx=0;entryDy=0;entryPerimeter=0;" edge="1" parent="1" source="XtOwEMIuDdxN2I8YzNI1-17" target="XtOwEMIuDdxN2I8YzNI1-15">
          <mxGeometry relative="1" as="geometry" />
        </mxCell>
        <mxCell id="XtOwEMIuDdxN2I8YzNI1-17" value="&lt;span style=&quot;font-size: 10.0pt ; line-height: 150% ; font-family: &amp;#34;microsoft yahei ui&amp;#34; , sans-serif&quot;&gt;更新换日时间点到文件登记簿&lt;/span&gt;" style="rounded=1;whiteSpace=wrap;html=1;absoluteArcSize=1;arcSize=14;strokeWidth=2;" vertex="1" parent="1">
          <mxGeometry x="510" y="390" width="140" height="100" as="geometry" />
        </mxCell>
      </root>
    </mxGraphModel>
  </diagram>
</mxfile>
